<svg  width="524.47839" height="83.03936" viewBox="0 0 110 80" version="1.1" id="svg25">
  <path inkscape:connector-curvature="0" style="vector-effect:none;fill:#99cc00;fill-opacity:1;fill-rule:nonzero;stroke-width:0.54730475" d="M 94.4648,43.18803 C 94.4648,21.29584 76.62266,3.4537 54.73047,3.4537 c -21.89219,0 -39.73432,17.84214 -39.73432,39.73433 0,10.12513 3.83113,19.81243 10.7819,27.20104 0.93042,0.98515 2.46287,1.03988 3.50275,0.10946 l 4.26898,-4.05005 c 0.98515,-0.93042 1.03988,-2.46287 0.10946,-3.44802 -5.0352,-5.36359 -7.82646,-12.42382 -7.82646,-19.7577 0,-15.92657 12.97113,-28.89769 28.89769,-28.89769 15.92657,0 28.8977,12.97112 28.8977,28.89769 0,7.38861 -2.79126,14.39411 -7.82646,19.7577 -0.93042,0.98515 -0.87569,2.5176 0.10946,3.44802 l 4.26898,4.05005 c 0.98514,0.93042 2.57233,0.87569 3.50275,-0.10946 6.95077,-7.44334 10.7819,-17.07591 10.7819,-27.20104" id="path6814"/>
  <path inkscape:connector-curvature="0" style="vector-effect:none;fill:#99cc00;fill-opacity:1;fill-rule:nonzero;stroke-width:0.54730475" d="m 109.46095,42.9691 c 0,-5.41831 -0.82096,-10.72717 -2.40814,-15.87183 -0.43785,-1.2588 -1.80611,-1.9703 -3.06491,-1.58719 l -5.63724,1.75138 c -1.31353,0.38311 -2.02502,1.75137 -1.64191,3.0649 1.2588,4.10479 1.91557,8.31904 1.91557,12.64274 0,7.66227 -2.07976,15.10561 -5.96563,21.67327 -0.71149,1.14934 -0.32838,2.6818 0.87569,3.33856 l 5.03521,3.01018 c 1.14934,0.71149 2.68179,0.32838 3.39328,-0.82096 4.92575,-8.15484 7.49808,-17.56848 7.49808,-27.20105" id="path6820"/>
  <path inkscape:connector-curvature="0" style="vector-effect:none;fill:#99cc00;fill-opacity:1;fill-rule:nonzero;stroke-width:0.54730475" d="m 16.80226,64.64237 c -3.88587,-6.51292 -5.96563,-14.011 -5.96563,-21.67327 0,-4.3237 0.65677,-8.59268 1.91557,-12.64274 0.38311,-1.31353 -0.32838,-2.68179 -1.64191,-3.0649 L 5.47305,25.51008 C 4.15952,25.12697 2.79125,25.83847 2.40814,27.09727 0.82096,32.24193 0,37.55079 0,42.9691 c 0,9.63257 2.62706,19.04621 7.49808,27.25578 0.71149,1.14934 2.18921,1.53245 3.39328,0.82096 l 5.03521,-3.01018 c 1.14934,-0.71149 1.53245,-2.24395 0.87569,-3.39329" id="path6826"/>
</svg>